<?xml version="1.0" encoding="utf-8"?>
<!-- Generator: Adobe Illustrator 16.0.0, SVG Export Plug-In . SVG Version: 6.00 Build 0)  -->
<!DOCTYPE svg PUBLIC "-//W3C//DTD SVG 1.1//EN" "http://www.w3.org/Graphics/SVG/1.1/DTD/svg11.dtd">
<svg version="1.1" id="Layer_1" xmlns="http://www.w3.org/2000/svg" xmlns:xlink="http://www.w3.org/1999/xlink" x="0px" y="0px"
	 width="70px" height="64.4px" viewBox="0 0 70 64.4" style="enable-background:new 0 0 70 64.4;" xml:space="preserve">
<style type="text/css">
<![CDATA[
	.st0{fill:none;stroke:#000000;stroke-width:0.8527;stroke-miterlimit:10;}
]]>
</style>
<circle class="st0" cx="34.7" cy="28.8" r="17.9"/>
<path class="st0" d="M31.3,10.7c-1.8-0.8-2.9-2.3-2.9-4c0-2.1,1.8-3.9,4.3-4.5V4c0,1.1,0.9,2.1,2.1,2.1s2.1-0.9,2.1-2.1v0.3V2.1h0
	c2.5,0.6,4.3,2.4,4.3,4.5c0,1.7-1.2,3.1-2.9,4l0,0c0-1.9-1.6-3.5-3.5-3.5C32.8,7.2,31.3,8.7,31.3,10.7
	C31.3,10.7,31.3,10.7,31.3,10.7"/>
<path class="st0" d="M9.9,61.9L9.9,61.9c0-8.4,6.8-15.1,15.1-15.1H45c8.4,0,15.1,6.8,15.1,15.1H9.9z"/>
<line class="st0" x1="40.2" y1="46.7" x2="32.9" y2="61.9"/>
<line class="st0" x1="35.2" y1="57.1" x2="30" y2="46.7"/>
<g>
	<path d="M42.4,51.9c0,0,0.2,0,0.5,0.1c0.3,0.1,0.7,0.2,1.2,0.4c0.9,0.4,2,1.1,2.9,2s1.6,1.9,2,2.9c0.2,0.5,0.3,0.9,0.4,1.2
		c0.1,0.3,0.1,0.5,0.1,0.5s-0.2,0-0.5-0.1c-0.3-0.1-0.7-0.2-1.2-0.4c-0.9-0.4-2-1.1-2.9-2s-1.6-1.9-2-2.9c-0.2-0.5-0.3-0.9-0.4-1.2
		C42.4,52.1,42.4,51.9,42.4,51.9z"/>
</g>
<g>
	<path d="M49.5,51.9c0,0,0,0.2-0.1,0.5c-0.1,0.3-0.2,0.7-0.4,1.2c-0.4,0.9-1.1,2-2,2.9s-1.9,1.6-2.9,2c-0.5,0.2-0.9,0.3-1.2,0.4
		C42.6,59,42.4,59,42.4,59s0-0.2,0.1-0.5c0.1-0.3,0.2-0.7,0.4-1.2c0.4-0.9,1.1-2,2-2.9s1.9-1.6,2.9-2c0.5-0.2,0.9-0.3,1.2-0.4
		C49.3,51.9,49.5,51.9,49.5,51.9z"/>
</g>
<path class="st0" d="M47.4,26.9c0,2.3-1.9,4.2-4.2,4.2H26.2c-2.3,0-4.2-1.9-4.2-4.2l0,0c0-2.3,1.9-4.2,4.2-4.2h17.1
	C45.6,22.8,47.4,24.6,47.4,26.9L47.4,26.9z"/>
<circle cx="26.6" cy="26.9" r="1.3"/>
<circle cx="42.8" cy="26.9" r="1.3"/>
</svg>
